<svg width="21" height="16" viewBox="0 0 21 16" fill="none" xmlns="http://www.w3.org/2000/svg">
<rect width="21" height="16" fill="white"/>
<path d="M19.9888 4.77635L10.5956 0.0897436C10.3563 -0.0299145 10.097 -0.0299145 9.85771 0.0897436L0.464549 4.77635C0.185347 4.91596 0.00585938 5.2151 0.00585938 5.51425C0.00585938 5.83333 0.185347 6.11254 0.464549 6.25214L9.85771 10.9587C9.97737 11.0185 10.097 11.0385 10.2366 11.0385C10.3563 11.0385 10.4959 11.0185 10.6155 10.9587L20.0087 6.27208C20.2879 6.13248 20.4674 5.85328 20.4674 5.53419C20.4475 5.2151 20.268 4.91596 19.9888 4.77635ZM10.2167 9.30342L2.67822 5.51425L10.2167 1.74501L17.7551 5.51425L10.2167 9.30342Z" fill="url(#paint0_linear_526_2)"/>
<path d="M20.3475 9.84192C20.148 9.44306 19.6495 9.26358 19.2307 9.46301L10.2164 13.9901L1.20218 9.48295C0.803316 9.28352 0.304741 9.44306 0.0853673 9.86187C-0.114063 10.2607 0.0454813 10.7593 0.464285 10.9787L9.85745 15.6653C9.97711 15.7251 10.0968 15.7451 10.2364 15.7451C10.356 15.7451 10.4956 15.7251 10.6153 15.6653L19.9885 10.9587C20.3874 10.7593 20.5469 10.2607 20.3475 9.84192Z" fill="url(#paint1_linear_526_2)"/>
<defs>
<linearGradient id="paint0_linear_526_2" x1="-2.91519" y1="5.52388" x2="130.943" y2="5.52388" gradientUnits="userSpaceOnUse">
<stop offset="0.0015024" stop-color="#4B49AC"/>
<stop offset="1" stop-color="#9A55FF"/>
</linearGradient>
<linearGradient id="paint1_linear_526_2" x1="-2.91546" y1="12.5669" x2="130.943" y2="12.5669" gradientUnits="userSpaceOnUse">
<stop offset="0.0015024" stop-color="#4B49AC"/>
<stop offset="1" stop-color="#9A55FF"/>
</linearGradient>
</defs>
</svg>
