<svg width="86" height="18" viewBox="0 0 86 18" fill="none" xmlns="http://www.w3.org/2000/svg">
<rect width="86" height="18" fill="white"/>
<path d="M19.9888 4.77635L10.5956 0.0897436C10.3563 -0.0299145 10.097 -0.0299145 9.85771 0.0897436L0.464549 4.77635C0.185347 4.91595 0.00585938 5.2151 0.00585938 5.51425C0.00585938 5.83333 0.185347 6.11254 0.464549 6.25214L9.85771 10.9587C9.97737 11.0185 10.097 11.0385 10.2366 11.0385C10.3563 11.0385 10.4959 11.0185 10.6155 10.9587L20.0087 6.27208C20.2879 6.13248 20.4674 5.85328 20.4674 5.53419C20.4475 5.2151 20.268 4.91595 19.9888 4.77635ZM10.2167 9.30342L2.67822 5.51425L10.2167 1.74501L17.7551 5.51425L10.2167 9.30342Z" fill="url(#paint0_linear_450_26)"/>
<path d="M20.3475 9.84192C20.148 9.44306 19.6495 9.26358 19.2307 9.46301L10.2164 13.9901L1.20218 9.48295C0.803316 9.28352 0.304741 9.44306 0.0853673 9.86187C-0.114063 10.2607 0.0454813 10.7593 0.464285 10.9787L9.85745 15.6653C9.97711 15.7251 10.0968 15.7451 10.2364 15.7451C10.356 15.7451 10.4956 15.7251 10.6153 15.6653L19.9885 10.9587C20.3874 10.7593 20.5469 10.2607 20.3475 9.84192Z" fill="url(#paint1_linear_450_26)"/>
<path d="M30.7806 14.3774C31.5366 14.3774 32.1246 14.2421 32.5446 13.9714C32.9646 13.6914 33.1746 13.2434 33.1746 12.6274C33.1746 12.2727 33.1046 11.9787 32.9646 11.7454C32.8339 11.5027 32.6566 11.3021 32.4326 11.1434C32.2086 10.9754 31.9519 10.8354 31.6626 10.7234C31.3732 10.6021 31.0699 10.4761 30.7526 10.3454C30.3512 10.1867 29.9919 10.0234 29.6746 9.85541C29.3572 9.68741 29.0866 9.50074 28.8626 9.29541C28.6386 9.08074 28.4659 8.83807 28.3446 8.56741C28.2326 8.29674 28.1766 7.97941 28.1766 7.61541C28.1766 6.78474 28.4519 6.15474 29.0026 5.72541C29.5532 5.29607 30.3186 5.08141 31.2986 5.08141C31.5599 5.08141 31.8166 5.10007 32.0686 5.13741C32.3206 5.17474 32.5539 5.22607 32.7686 5.29141C32.9926 5.34741 33.1932 5.41274 33.3706 5.48741C33.5572 5.56207 33.7112 5.64141 33.8326 5.72541L33.4966 6.52341C33.2259 6.33674 32.8946 6.18741 32.5026 6.07541C32.1199 5.96341 31.7046 5.90741 31.2566 5.90741C30.9486 5.90741 30.6639 5.94007 30.4026 6.00541C30.1506 6.06141 29.9312 6.15941 29.7446 6.29941C29.5579 6.43007 29.4086 6.59807 29.2966 6.80341C29.1939 7.00874 29.1426 7.25607 29.1426 7.54541C29.1426 7.84407 29.1986 8.09607 29.3106 8.30141C29.4226 8.50674 29.5766 8.68407 29.7726 8.83341C29.9779 8.98274 30.2159 9.11807 30.4866 9.23941C30.7572 9.36074 31.0512 9.48674 31.3686 9.61741C31.7512 9.77607 32.1106 9.93474 32.4466 10.0934C32.7919 10.2521 33.0906 10.4387 33.3426 10.6534C33.5946 10.8681 33.7952 11.1294 33.9446 11.4374C34.0939 11.7454 34.1686 12.1234 34.1686 12.5714C34.1686 13.4487 33.8606 14.1067 33.2446 14.5454C32.6379 14.9841 31.8119 15.2034 30.7666 15.2034C30.3932 15.2034 30.0526 15.1801 29.7446 15.1334C29.4366 15.0867 29.1612 15.0307 28.9186 14.9654C28.6759 14.8907 28.4706 14.8161 28.3026 14.7414C28.1346 14.6667 28.0039 14.6014 27.9106 14.5454L28.2186 13.7194C28.3119 13.7754 28.4379 13.8407 28.5966 13.9154C28.7552 13.9901 28.9419 14.0647 29.1566 14.1394C29.3712 14.2047 29.6139 14.2607 29.8846 14.3074C30.1552 14.3541 30.4539 14.3774 30.7806 14.3774ZM35.871 14.9934V4.29741L36.781 4.12941V7.96541C37.0797 7.85341 37.383 7.76941 37.691 7.71341C37.999 7.64807 38.307 7.61541 38.615 7.61541C39.175 7.61541 39.6417 7.69474 40.015 7.85341C40.3883 8.01207 40.687 8.24074 40.911 8.53941C41.135 8.82874 41.289 9.17874 41.373 9.58941C41.4663 10.0001 41.513 10.4527 41.513 10.9474V14.9934H40.603V11.2414C40.603 10.7281 40.5657 10.2941 40.491 9.93941C40.4257 9.58474 40.309 9.29541 40.141 9.07141C39.9823 8.84741 39.7677 8.68874 39.497 8.59541C39.2263 8.49274 38.8857 8.44141 38.475 8.44141C38.3163 8.44141 38.1437 8.45541 37.957 8.48341C37.7797 8.51141 37.6117 8.54407 37.453 8.58141C37.2943 8.60941 37.1497 8.64207 37.019 8.67941C36.8977 8.71674 36.8183 8.74474 36.781 8.76341V14.9934H35.871ZM50.0157 11.3814C50.0157 11.9507 49.9317 12.4687 49.7637 12.9354C49.605 13.4021 49.3764 13.7987 49.0777 14.1254C48.7884 14.4521 48.443 14.7087 48.0417 14.8954C47.6404 15.0727 47.197 15.1614 46.7117 15.1614C46.2264 15.1614 45.783 15.0727 45.3817 14.8954C44.9804 14.7087 44.6304 14.4521 44.3317 14.1254C44.0424 13.7987 43.8137 13.4021 43.6457 12.9354C43.487 12.4687 43.4077 11.9507 43.4077 11.3814C43.4077 10.8121 43.487 10.2941 43.6457 9.82741C43.8137 9.36074 44.0424 8.96407 44.3317 8.63741C44.6304 8.30141 44.9804 8.04474 45.3817 7.86741C45.783 7.68074 46.2264 7.58741 46.7117 7.58741C47.197 7.58741 47.6404 7.68074 48.0417 7.86741C48.443 8.04474 48.7884 8.30141 49.0777 8.63741C49.3764 8.96407 49.605 9.36074 49.7637 9.82741C49.9317 10.2941 50.0157 10.8121 50.0157 11.3814ZM49.0497 11.3814C49.0497 10.4761 48.8397 9.75741 48.4197 9.22541C47.9997 8.68407 47.4304 8.41341 46.7117 8.41341C45.993 8.41341 45.4237 8.68407 45.0037 9.22541C44.5837 9.75741 44.3737 10.4761 44.3737 11.3814C44.3737 12.2867 44.5837 13.0054 45.0037 13.5374C45.4237 14.0694 45.993 14.3354 46.7117 14.3354C47.4304 14.3354 47.9997 14.0694 48.4197 13.5374C48.8397 13.0054 49.0497 12.2867 49.0497 11.3814ZM52.9001 13.6914C52.9841 13.7567 53.0868 13.8267 53.2081 13.9014C53.3388 13.9761 53.4881 14.0461 53.6561 14.1114C53.8241 14.1767 54.0061 14.2327 54.2021 14.2794C54.3981 14.3167 54.6035 14.3354 54.8181 14.3354C55.2661 14.3354 55.6395 14.2607 55.9381 14.1114C56.2461 13.9527 56.4935 13.7427 56.6801 13.4814C56.8668 13.2107 57.0021 12.8981 57.0861 12.5434C57.1701 12.1794 57.2121 11.7967 57.2121 11.3954C57.2121 10.4434 56.9741 9.71541 56.4981 9.21141C56.0221 8.69807 55.3921 8.44141 54.6081 8.44141C54.1601 8.44141 53.7961 8.46474 53.5161 8.51141C53.2455 8.54874 53.0401 8.59074 52.9001 8.63741V13.6914ZM52.9001 17.5834H51.9901V8.00741C52.2608 7.91407 52.6061 7.82541 53.0261 7.74141C53.4461 7.65741 53.9781 7.61541 54.6221 7.61541C55.1541 7.61541 55.6348 7.70407 56.0641 7.88141C56.5028 8.04941 56.8761 8.29674 57.1841 8.62341C57.5015 8.95007 57.7441 9.34674 57.9121 9.81341C58.0895 10.2801 58.1781 10.8074 58.1781 11.3954C58.1781 11.9461 58.1035 12.4547 57.9541 12.9214C57.8141 13.3787 57.6041 13.7754 57.3241 14.1114C57.0441 14.4381 56.6988 14.6947 56.2881 14.8814C55.8868 15.0681 55.4248 15.1614 54.9021 15.1614C54.4261 15.1614 54.0108 15.0961 53.6561 14.9654C53.3108 14.8254 53.0588 14.6947 52.9001 14.5734V17.5834ZM61.0622 13.6914C61.1462 13.7567 61.2489 13.8267 61.3702 13.9014C61.5009 13.9761 61.6502 14.0461 61.8182 14.1114C61.9862 14.1767 62.1682 14.2327 62.3642 14.2794C62.5602 14.3167 62.7656 14.3354 62.9802 14.3354C63.4282 14.3354 63.8016 14.2607 64.1002 14.1114C64.4082 13.9527 64.6556 13.7427 64.8422 13.4814C65.0289 13.2107 65.1642 12.8981 65.2482 12.5434C65.3322 12.1794 65.3742 11.7967 65.3742 11.3954C65.3742 10.4434 65.1362 9.71541 64.6602 9.21141C64.1842 8.69807 63.5542 8.44141 62.7702 8.44141C62.3222 8.44141 61.9582 8.46474 61.6782 8.51141C61.4076 8.54874 61.2022 8.59074 61.0622 8.63741V13.6914ZM61.0622 17.5834H60.1522V8.00741C60.4229 7.91407 60.7682 7.82541 61.1882 7.74141C61.6082 7.65741 62.1402 7.61541 62.7842 7.61541C63.3162 7.61541 63.7969 7.70407 64.2262 7.88141C64.6649 8.04941 65.0382 8.29674 65.3462 8.62341C65.6636 8.95007 65.9062 9.34674 66.0742 9.81341C66.2516 10.2801 66.3402 10.8074 66.3402 11.3954C66.3402 11.9461 66.2656 12.4547 66.1162 12.9214C65.9762 13.3787 65.7662 13.7754 65.4862 14.1114C65.2062 14.4381 64.8609 14.6947 64.4502 14.8814C64.0489 15.0681 63.5869 15.1614 63.0642 15.1614C62.5882 15.1614 62.1729 15.0961 61.8182 14.9654C61.4729 14.8254 61.2209 14.6947 61.0622 14.5734V17.5834ZM67.8804 11.3674C67.8804 10.7327 67.969 10.1821 68.1464 9.71541C68.333 9.23941 68.571 8.84274 68.8604 8.52541C69.159 8.20807 69.495 7.97474 69.8684 7.82541C70.251 7.66674 70.643 7.58741 71.0444 7.58741C71.931 7.58741 72.6357 7.87674 73.1584 8.45541C73.6904 9.03407 73.9564 9.92541 73.9564 11.1294C73.9564 11.2041 73.9517 11.2787 73.9424 11.3534C73.9424 11.4281 73.9377 11.4981 73.9284 11.5634H68.8464C68.8744 12.4501 69.0937 13.1314 69.5044 13.6074C69.915 14.0834 70.5684 14.3214 71.4644 14.3214C71.959 14.3214 72.351 14.2747 72.6404 14.1814C72.9297 14.0881 73.1397 14.0087 73.2704 13.9434L73.4384 14.7274C73.3077 14.8021 73.0604 14.8907 72.6964 14.9934C72.3417 15.0961 71.9217 15.1474 71.4364 15.1474C70.8017 15.1474 70.2604 15.0541 69.8124 14.8674C69.3644 14.6807 68.9957 14.4194 68.7064 14.0834C68.417 13.7474 68.207 13.3507 68.0764 12.8934C67.9457 12.4267 67.8804 11.9181 67.8804 11.3674ZM73.0184 10.7934C72.9997 10.0374 72.8224 9.44941 72.4864 9.02941C72.1504 8.60941 71.6744 8.39941 71.0584 8.39941C70.7317 8.39941 70.4377 8.46474 70.1764 8.59541C69.9244 8.72607 69.7004 8.90341 69.5044 9.12741C69.3177 9.34207 69.1684 9.59407 69.0564 9.88341C68.9537 10.1727 68.893 10.4761 68.8744 10.7934H73.0184ZM78.4483 7.61541C78.7469 7.61541 79.0269 7.63874 79.2883 7.68541C79.5589 7.73207 79.7456 7.77874 79.8483 7.82541L79.6663 8.60941C79.5916 8.57207 79.4376 8.53474 79.2043 8.49741C78.9803 8.45074 78.6816 8.42741 78.3083 8.42741C77.9163 8.42741 77.5989 8.45541 77.3563 8.51141C77.1229 8.56741 76.9689 8.61407 76.8943 8.65141V14.9934H75.9843V8.09141C76.2176 7.98874 76.5396 7.88607 76.9503 7.78341C77.3609 7.67141 77.8603 7.61541 78.4483 7.61541ZM82.7046 14.3494C83.2273 14.3494 83.6566 14.2654 83.9926 14.0974C84.3379 13.9201 84.5106 13.6261 84.5106 13.2154C84.5106 13.0194 84.4779 12.8514 84.4126 12.7114C84.3566 12.5714 84.2586 12.4454 84.1186 12.3334C83.9786 12.2214 83.7919 12.1141 83.5586 12.0114C83.3346 11.9087 83.0546 11.7874 82.7186 11.6474C82.4479 11.5354 82.1913 11.4234 81.9486 11.3114C81.7059 11.1901 81.4913 11.0547 81.3046 10.9054C81.1179 10.7467 80.9686 10.5601 80.8566 10.3454C80.7446 10.1307 80.6886 9.86941 80.6886 9.56141C80.6886 8.97341 80.9079 8.49741 81.3466 8.13341C81.7946 7.76941 82.4059 7.58741 83.1806 7.58741C83.6753 7.58741 84.0813 7.62941 84.3986 7.71341C84.7253 7.79741 84.9539 7.87207 85.0846 7.93741L84.8746 8.74941C84.7626 8.69341 84.5713 8.61874 84.3006 8.52541C84.0393 8.43207 83.6519 8.38541 83.1386 8.38541C82.9333 8.38541 82.7373 8.40874 82.5506 8.45541C82.3733 8.49274 82.2146 8.55807 82.0746 8.65141C81.9346 8.73541 81.8226 8.84741 81.7386 8.98741C81.6546 9.11807 81.6126 9.28141 81.6126 9.47741C81.6126 9.67341 81.6499 9.84141 81.7246 9.98141C81.7993 10.1214 81.9066 10.2474 82.0466 10.3594C82.1959 10.4621 82.3733 10.5601 82.5786 10.6534C82.7933 10.7467 83.0359 10.8494 83.3066 10.9614C83.5866 11.0734 83.8526 11.1901 84.1046 11.3114C84.3659 11.4234 84.5946 11.5634 84.7906 11.7314C84.9866 11.8901 85.1453 12.0861 85.2666 12.3194C85.3879 12.5434 85.4486 12.8281 85.4486 13.1734C85.4486 13.8267 85.2013 14.3214 84.7066 14.6574C84.2213 14.9934 83.5539 15.1614 82.7046 15.1614C82.0699 15.1614 81.5846 15.1054 81.2486 14.9934C80.9126 14.8907 80.6886 14.8114 80.5766 14.7554L80.8146 13.9294C80.8426 13.9481 80.9033 13.9807 80.9966 14.0274C81.0899 14.0647 81.2159 14.1114 81.3746 14.1674C81.5333 14.2141 81.7199 14.2561 81.9346 14.2934C82.1586 14.3307 82.4153 14.3494 82.7046 14.3494Z" fill="#4B49AC"/>
<defs>
<linearGradient id="paint0_linear_450_26" x1="-2.91519" y1="5.52388" x2="130.943" y2="5.52388" gradientUnits="userSpaceOnUse">
<stop offset="0.0015024" stop-color="#4B49AC"/>
<stop offset="1" stop-color="#9A55FF"/>
</linearGradient>
<linearGradient id="paint1_linear_450_26" x1="-2.91546" y1="12.5669" x2="130.943" y2="12.5669" gradientUnits="userSpaceOnUse">
<stop offset="0.0015024" stop-color="#4B49AC"/>
<stop offset="1" stop-color="#9A55FF"/>
</linearGradient>
</defs>
</svg>
