<svg width="94" height="18" viewBox="0 0 94 18" fill="none" xmlns="http://www.w3.org/2000/svg">
<rect width="94" height="18" fill="white"/>
<path d="M19.9829 4.77635L10.5897 0.0897436C10.3504 -0.0299145 10.0912 -0.0299145 9.85185 0.0897436L0.458689 4.77635C0.179487 4.91595 0 5.2151 0 5.51425C0 5.83333 0.179487 6.11254 0.458689 6.25214L9.85185 10.9587C9.97151 11.0185 10.0912 11.0385 10.2308 11.0385C10.3504 11.0385 10.49 11.0185 10.6097 10.9587L20.0028 6.27208C20.2821 6.13248 20.4615 5.85328 20.4615 5.53419C20.4416 5.2151 20.2621 4.91595 19.9829 4.77635ZM10.2108 9.30342L2.67236 5.51425L10.2108 1.74501L17.7493 5.51425L10.2108 9.30342Z" fill="url(#paint0_linear_0_1)"/>
<path d="M20.3475 11.4608C20.148 11.062 19.6495 10.8825 19.2307 11.0819L10.2164 15.609L1.20218 11.1018C0.803316 10.9024 0.304741 11.062 0.0853673 11.4808C-0.114063 11.8796 0.0454813 12.3782 0.464285 12.5976L9.85745 17.2842C9.97711 17.344 10.0968 17.364 10.2364 17.364C10.356 17.364 10.4956 17.344 10.6153 17.2842L19.9885 12.5776C20.3874 12.3782 20.5469 11.8796 20.3475 11.4608Z" fill="url(#paint1_linear_0_1)"/>
<path d="M26.7806 13.3774C27.5366 13.3774 28.1246 13.2421 28.5446 12.9714C28.9646 12.6914 29.1746 12.2434 29.1746 11.6274C29.1746 11.2727 29.1046 10.9787 28.9646 10.7454C28.8339 10.5027 28.6566 10.3021 28.4326 10.1434C28.2086 9.97541 27.9519 9.83541 27.6626 9.72341C27.3732 9.60207 27.0699 9.47607 26.7526 9.34541C26.3512 9.18674 25.9919 9.02341 25.6746 8.85541C25.3572 8.68741 25.0866 8.50074 24.8626 8.29541C24.6386 8.08074 24.4659 7.83807 24.3446 7.56741C24.2326 7.29674 24.1766 6.97941 24.1766 6.61541C24.1766 5.78474 24.4519 5.15474 25.0026 4.72541C25.5532 4.29607 26.3186 4.08141 27.2986 4.08141C27.5599 4.08141 27.8166 4.10007 28.0686 4.13741C28.3206 4.17474 28.5539 4.22607 28.7686 4.29141C28.9926 4.34741 29.1932 4.41274 29.3706 4.48741C29.5572 4.56207 29.7112 4.64141 29.8326 4.72541L29.4966 5.52341C29.2259 5.33674 28.8946 5.18741 28.5026 5.07541C28.1199 4.96341 27.7046 4.90741 27.2566 4.90741C26.9486 4.90741 26.6639 4.94007 26.4026 5.00541C26.1506 5.06141 25.9312 5.15941 25.7446 5.29941C25.5579 5.43007 25.4086 5.59807 25.2966 5.80341C25.1939 6.00874 25.1426 6.25607 25.1426 6.54541C25.1426 6.84407 25.1986 7.09607 25.3106 7.30141C25.4226 7.50674 25.5766 7.68407 25.7726 7.83341C25.9779 7.98274 26.2159 8.11807 26.4866 8.23941C26.7572 8.36074 27.0512 8.48674 27.3686 8.61741C27.7512 8.77607 28.1106 8.93474 28.4466 9.09341C28.7919 9.25207 29.0906 9.43874 29.3426 9.65341C29.5946 9.86807 29.7952 10.1294 29.9446 10.4374C30.0939 10.7454 30.1686 11.1234 30.1686 11.5714C30.1686 12.4487 29.8606 13.1067 29.2446 13.5454C28.6379 13.9841 27.8119 14.2034 26.7666 14.2034C26.3932 14.2034 26.0526 14.1801 25.7446 14.1334C25.4366 14.0867 25.1612 14.0307 24.9186 13.9654C24.6759 13.8907 24.4706 13.8161 24.3026 13.7414C24.1346 13.6667 24.0039 13.6014 23.9106 13.5454L24.2186 12.7194C24.3119 12.7754 24.4379 12.8407 24.5966 12.9154C24.7552 12.9901 24.9419 13.0647 25.1566 13.1394C25.3712 13.2047 25.6139 13.2607 25.8846 13.3074C26.1552 13.3541 26.4539 13.3774 26.7806 13.3774ZM32.725 6.75541H35.609V7.52541H32.725V11.3754C32.725 11.7861 32.7577 12.1221 32.823 12.3834C32.8977 12.6354 33.0003 12.8314 33.131 12.9714C33.2617 13.1114 33.4203 13.2047 33.607 13.2514C33.7937 13.2981 33.999 13.3214 34.223 13.3214C34.6057 13.3214 34.9137 13.2794 35.147 13.1954C35.3803 13.1021 35.5623 13.0181 35.693 12.9434L35.917 13.6994C35.7863 13.7834 35.5577 13.8814 35.231 13.9934C34.9043 14.0961 34.5497 14.1474 34.167 14.1474C33.719 14.1474 33.341 14.0914 33.033 13.9794C32.7343 13.8581 32.4917 13.6807 32.305 13.4474C32.1277 13.2047 32.0017 12.9061 31.927 12.5514C31.8523 12.1967 31.815 11.7767 31.815 11.2914V4.62741L32.725 4.45941V6.75541ZM39.2591 14.1474C38.9511 13.5781 38.6524 12.9854 38.3631 12.3694C38.0831 11.7534 37.8171 11.1327 37.5651 10.5074C37.3224 9.87274 37.0984 9.24274 36.8931 8.61741C36.6877 7.98274 36.5104 7.36207 36.3611 6.75541H37.3271C37.4297 7.20341 37.5604 7.68874 37.7191 8.21141C37.8777 8.72474 38.0551 9.25674 38.2511 9.80741C38.4564 10.3581 38.6804 10.9227 38.9231 11.5014C39.1657 12.0801 39.4271 12.6494 39.7071 13.2094C39.9124 12.6307 40.0944 12.0847 40.2531 11.5714C40.4117 11.0581 40.5564 10.5494 40.6871 10.0454C40.8271 9.53207 40.9577 9.00941 41.0791 8.47741C41.2097 7.94541 41.3451 7.37141 41.4851 6.75541H42.3951C42.0964 8.10874 41.7557 9.42474 41.3731 10.7034C40.9904 11.9821 40.5751 13.1534 40.1271 14.2174C39.9497 14.6374 39.7677 14.9967 39.5811 15.2954C39.3944 15.6034 39.1844 15.8554 38.9511 16.0514C38.7271 16.2474 38.4611 16.3921 38.1531 16.4854C37.8544 16.5787 37.4997 16.6254 37.0891 16.6254C36.8557 16.6254 36.6411 16.5974 36.4451 16.5414C36.2584 16.4854 36.1417 16.4434 36.0951 16.4154L36.2771 15.6594C36.3144 15.6874 36.4171 15.7247 36.5851 15.7714C36.7624 15.8274 36.9444 15.8554 37.1311 15.8554C37.3924 15.8554 37.6257 15.8274 37.8311 15.7714C38.0457 15.7154 38.2371 15.6174 38.4051 15.4774C38.5731 15.3467 38.7224 15.1741 38.8531 14.9594C38.9931 14.7447 39.1284 14.4741 39.2591 14.1474ZM45.7499 14.1194C45.4419 14.1101 45.1712 14.0681 44.9379 13.9934C44.7139 13.9281 44.5226 13.8254 44.3639 13.6854C44.2146 13.5361 44.0979 13.3494 44.0139 13.1254C43.9392 12.8921 43.9019 12.6027 43.9019 12.2574V3.29741L44.8119 3.12941V12.2294C44.8119 12.4534 44.8306 12.6354 44.8679 12.7754C44.9146 12.9061 44.9799 13.0134 45.0639 13.0974C45.1479 13.1721 45.2552 13.2281 45.3859 13.2654C45.5259 13.3027 45.6892 13.3354 45.8759 13.3634L45.7499 14.1194ZM47.0503 10.3674C47.0503 9.73274 47.1389 9.18207 47.3163 8.71541C47.5029 8.23941 47.7409 7.84274 48.0303 7.52541C48.3289 7.20807 48.6649 6.97474 49.0383 6.82541C49.4209 6.66674 49.8129 6.58741 50.2143 6.58741C51.1009 6.58741 51.8056 6.87674 52.3283 7.45541C52.8603 8.03407 53.1263 8.92541 53.1263 10.1294C53.1263 10.2041 53.1216 10.2787 53.1123 10.3534C53.1123 10.4281 53.1076 10.4981 53.0983 10.5634H48.0163C48.0443 11.4501 48.2636 12.1314 48.6743 12.6074C49.0849 13.0834 49.7383 13.3214 50.6343 13.3214C51.1289 13.3214 51.5209 13.2747 51.8103 13.1814C52.0996 13.0881 52.3096 13.0087 52.4403 12.9434L52.6083 13.7274C52.4776 13.8021 52.2303 13.8907 51.8663 13.9934C51.5116 14.0961 51.0916 14.1474 50.6063 14.1474C49.9716 14.1474 49.4303 14.0541 48.9823 13.8674C48.5343 13.6807 48.1656 13.4194 47.8763 13.0834C47.5869 12.7474 47.3769 12.3507 47.2463 11.8934C47.1156 11.4267 47.0503 10.9181 47.0503 10.3674ZM52.1883 9.79341C52.1696 9.03741 51.9923 8.44941 51.6563 8.02941C51.3203 7.60941 50.8443 7.39941 50.2283 7.39941C49.9016 7.39941 49.6076 7.46474 49.3463 7.59541C49.0943 7.72607 48.8703 7.90341 48.6743 8.12741C48.4876 8.34207 48.3383 8.59407 48.2263 8.88341C48.1236 9.17274 48.0629 9.47607 48.0443 9.79341H52.1883ZM56.6382 13.3494C57.1609 13.3494 57.5902 13.2654 57.9262 13.0974C58.2715 12.9201 58.4442 12.6261 58.4442 12.2154C58.4442 12.0194 58.4115 11.8514 58.3462 11.7114C58.2902 11.5714 58.1922 11.4454 58.0522 11.3334C57.9122 11.2214 57.7255 11.1141 57.4922 11.0114C57.2682 10.9087 56.9882 10.7874 56.6522 10.6474C56.3815 10.5354 56.1249 10.4234 55.8822 10.3114C55.6395 10.1901 55.4249 10.0547 55.2382 9.90541C55.0515 9.74674 54.9022 9.56007 54.7902 9.34541C54.6782 9.13074 54.6222 8.86941 54.6222 8.56141C54.6222 7.97341 54.8415 7.49741 55.2802 7.13341C55.7282 6.76941 56.3395 6.58741 57.1142 6.58741C57.6089 6.58741 58.0149 6.62941 58.3322 6.71341C58.6589 6.79741 58.8875 6.87207 59.0182 6.93741L58.8082 7.74941C58.6962 7.69341 58.5049 7.61874 58.2342 7.52541C57.9729 7.43207 57.5855 7.38541 57.0722 7.38541C56.8669 7.38541 56.6709 7.40874 56.4842 7.45541C56.3069 7.49274 56.1482 7.55807 56.0082 7.65141C55.8682 7.73541 55.7562 7.84741 55.6722 7.98741C55.5882 8.11807 55.5462 8.28141 55.5462 8.47741C55.5462 8.67341 55.5835 8.84141 55.6582 8.98141C55.7329 9.12141 55.8402 9.24741 55.9802 9.35941C56.1295 9.46207 56.3069 9.56007 56.5122 9.65341C56.7269 9.74674 56.9695 9.84941 57.2402 9.96141C57.5202 10.0734 57.7862 10.1901 58.0382 10.3114C58.2995 10.4234 58.5282 10.5634 58.7242 10.7314C58.9202 10.8901 59.0789 11.0861 59.2002 11.3194C59.3215 11.5434 59.3822 11.8281 59.3822 12.1734C59.3822 12.8267 59.1349 13.3214 58.6402 13.6574C58.1549 13.9934 57.4875 14.1614 56.6382 14.1614C56.0035 14.1614 55.5182 14.1054 55.1822 13.9934C54.8462 13.8907 54.6222 13.8114 54.5102 13.7554L54.7482 12.9294C54.7762 12.9481 54.8369 12.9807 54.9302 13.0274C55.0235 13.0647 55.1495 13.1114 55.3082 13.1674C55.4669 13.2141 55.6535 13.2561 55.8682 13.2934C56.0922 13.3307 56.3489 13.3494 56.6382 13.3494ZM65.2305 14.2034C64.6051 14.2034 64.0218 14.0914 63.4805 13.8674C62.9485 13.6434 62.4818 13.3167 62.0805 12.8874C61.6885 12.4581 61.3758 11.9307 61.1425 11.3054C60.9185 10.6707 60.8065 9.94741 60.8065 9.13541C60.8065 8.32341 60.9278 7.60474 61.1705 6.97941C61.4225 6.34474 61.7538 5.81274 62.1645 5.38341C62.5751 4.95407 63.0511 4.63207 63.5925 4.41741C64.1338 4.19341 64.6985 4.08141 65.2865 4.08141C65.6505 4.08141 65.9818 4.10474 66.2805 4.15141C66.5791 4.19807 66.8405 4.25874 67.0645 4.33341C67.2885 4.39874 67.4798 4.46874 67.6385 4.54341C67.7971 4.60874 67.9185 4.66941 68.0025 4.72541L67.6945 5.55141C67.4611 5.41141 67.1625 5.27607 66.7985 5.14541C66.4438 5.00541 66.0005 4.93541 65.4685 4.93541C64.8618 4.93541 64.3298 5.03807 63.8725 5.24341C63.4245 5.44874 63.0465 5.73807 62.7385 6.11141C62.4305 6.48474 62.1971 6.92807 62.0385 7.44141C61.8891 7.95474 61.8145 8.52407 61.8145 9.14941C61.8145 9.79341 61.8891 10.3767 62.0385 10.8994C62.1971 11.4127 62.4258 11.8514 62.7245 12.2154C63.0231 12.5794 63.3871 12.8594 63.8165 13.0554C64.2551 13.2514 64.7545 13.3494 65.3145 13.3494C65.9305 13.3494 66.4438 13.2934 66.8545 13.1814C67.2745 13.0601 67.5918 12.9387 67.8065 12.8174L68.0725 13.6294C68.0071 13.6761 67.8951 13.7321 67.7365 13.7974C67.5778 13.8534 67.3771 13.9141 67.1345 13.9794C66.8918 14.0447 66.6118 14.0961 66.2945 14.1334C65.9771 14.1801 65.6225 14.2034 65.2305 14.2034ZM72.1377 6.61541C72.4364 6.61541 72.7164 6.63874 72.9777 6.68541C73.2484 6.73207 73.4351 6.77874 73.5377 6.82541L73.3557 7.60941C73.2811 7.57207 73.1271 7.53474 72.8937 7.49741C72.6697 7.45074 72.3711 7.42741 71.9977 7.42741C71.6057 7.42741 71.2884 7.45541 71.0457 7.51141C70.8124 7.56741 70.6584 7.61407 70.5837 7.65141V13.9934H69.6737V7.09141C69.9071 6.98874 70.2291 6.88607 70.6397 6.78341C71.0504 6.67141 71.5497 6.61541 72.1377 6.61541ZM77.1921 13.3354C77.5467 13.3354 77.8547 13.3261 78.1161 13.3074C78.3867 13.2794 78.6154 13.2467 78.8021 13.2094V10.6614C78.6994 10.6147 78.5361 10.5681 78.3121 10.5214C78.0881 10.4654 77.7801 10.4374 77.3881 10.4374C77.1641 10.4374 76.9307 10.4561 76.6881 10.4934C76.4454 10.5214 76.2214 10.5914 76.0161 10.7034C75.8107 10.8061 75.6427 10.9507 75.5121 11.1374C75.3814 11.3241 75.3161 11.5714 75.3161 11.8794C75.3161 12.1501 75.3581 12.3787 75.4421 12.5654C75.5354 12.7521 75.6614 12.9014 75.8201 13.0134C75.9881 13.1254 76.1841 13.2094 76.4081 13.2654C76.6414 13.3121 76.9027 13.3354 77.1921 13.3354ZM77.1081 6.58741C77.5841 6.58741 77.9854 6.65741 78.3121 6.79741C78.6481 6.92807 78.9187 7.11474 79.1241 7.35741C79.3294 7.59074 79.4787 7.87074 79.5721 8.19741C79.6654 8.52407 79.7121 8.87874 79.7121 9.26141V13.8254C79.6187 13.8534 79.4834 13.8861 79.3061 13.9234C79.1287 13.9514 78.9234 13.9841 78.6901 14.0214C78.4567 14.0587 78.1954 14.0867 77.9061 14.1054C77.6261 14.1334 77.3367 14.1474 77.0381 14.1474C76.6554 14.1474 76.3007 14.1054 75.9741 14.0214C75.6567 13.9374 75.3767 13.8067 75.1341 13.6294C74.9007 13.4427 74.7141 13.2094 74.5741 12.9294C74.4434 12.6401 74.3781 12.2901 74.3781 11.8794C74.3781 11.4874 74.4527 11.1514 74.6021 10.8714C74.7514 10.5914 74.9614 10.3627 75.2321 10.1854C75.5027 9.99874 75.8247 9.86341 76.1981 9.77941C76.5714 9.69541 76.9774 9.65341 77.4161 9.65341C77.5467 9.65341 77.6821 9.66274 77.8221 9.68141C77.9714 9.69074 78.1114 9.70941 78.2421 9.73741C78.3821 9.75607 78.4987 9.77941 78.5921 9.80741C78.6947 9.82607 78.7647 9.84474 78.8021 9.86341V9.41541C78.8021 9.16341 78.7834 8.92074 78.7461 8.68741C78.7087 8.44474 78.6247 8.23007 78.4941 8.04341C78.3727 7.84741 78.1954 7.69341 77.9621 7.58141C77.7381 7.46007 77.4394 7.39941 77.0661 7.39941C76.5341 7.39941 76.1374 7.43674 75.8761 7.51141C75.6147 7.58607 75.4234 7.64674 75.3021 7.69341L75.1761 6.89541C75.3347 6.82074 75.5774 6.75074 75.9041 6.68541C76.2401 6.62007 76.6414 6.58741 77.1081 6.58741ZM86.5271 7.49741C86.3124 7.74007 86.0324 8.07607 85.6871 8.50541C85.3418 8.93474 84.9731 9.41541 84.5811 9.94741C84.1891 10.4701 83.8018 11.0207 83.4191 11.5994C83.0364 12.1687 82.7004 12.7101 82.4111 13.2234H86.6531V13.9934H81.3611V13.3354C81.6038 12.8781 81.9024 12.3741 82.2571 11.8234C82.6211 11.2727 82.9944 10.7314 83.3771 10.1994C83.7598 9.65807 84.1331 9.15407 84.4971 8.68741C84.8611 8.21141 85.1691 7.82407 85.4211 7.52541H81.5711V6.75541H86.5271V7.49741ZM87.8608 10.3674C87.8608 9.73274 87.9495 9.18207 88.1268 8.71541C88.3135 8.23941 88.5515 7.84274 88.8408 7.52541C89.1395 7.20807 89.4755 6.97474 89.8488 6.82541C90.2315 6.66674 90.6235 6.58741 91.0248 6.58741C91.9115 6.58741 92.6162 6.87674 93.1388 7.45541C93.6708 8.03407 93.9368 8.92541 93.9368 10.1294C93.9368 10.2041 93.9322 10.2787 93.9228 10.3534C93.9228 10.4281 93.9182 10.4981 93.9088 10.5634H88.8268C88.8548 11.4501 89.0742 12.1314 89.4848 12.6074C89.8955 13.0834 90.5488 13.3214 91.4448 13.3214C91.9395 13.3214 92.3315 13.2747 92.6208 13.1814C92.9102 13.0881 93.1202 13.0087 93.2508 12.9434L93.4188 13.7274C93.2882 13.8021 93.0408 13.8907 92.6768 13.9934C92.3222 14.0961 91.9022 14.1474 91.4168 14.1474C90.7822 14.1474 90.2408 14.0541 89.7928 13.8674C89.3448 13.6807 88.9762 13.4194 88.6868 13.0834C88.3975 12.7474 88.1875 12.3507 88.0568 11.8934C87.9262 11.4267 87.8608 10.9181 87.8608 10.3674ZM92.9988 9.79341C92.9802 9.03741 92.8028 8.44941 92.4668 8.02941C92.1308 7.60941 91.6548 7.39941 91.0388 7.39941C90.7122 7.39941 90.4182 7.46474 90.1568 7.59541C89.9048 7.72607 89.6808 7.90341 89.4848 8.12741C89.2982 8.34207 89.1488 8.59407 89.0368 8.88341C88.9342 9.17274 88.8735 9.47607 88.8548 9.79341H92.9988Z" fill="#4B49AC"/>
<defs>
<linearGradient id="paint0_linear_0_1" x1="-2.92105" y1="5.52388" x2="130.937" y2="5.52388" gradientUnits="userSpaceOnUse">
<stop offset="0.0015024" stop-color="#4B49AC"/>
<stop offset="1" stop-color="#9A55FF"/>
</linearGradient>
<linearGradient id="paint1_linear_0_1" x1="-2.91546" y1="14.1858" x2="130.943" y2="14.1858" gradientUnits="userSpaceOnUse">
<stop offset="0.0015024" stop-color="#4B49AC"/>
<stop offset="1" stop-color="#9A55FF"/>
</linearGradient>
</defs>
</svg>
